PathFileType  4	(X/Y/Z) /workspace/Data/0bb06e95-9abd-4511-9c1c-ff42f7dfbbb3/MarkerData/PostAugmentation
DataRate	CameraRate	NumFrames	NumMarkers	Units	OrigDataRate	OrigDataStartFrame	OrigNumFrames
240.0	240.0	10	36	m	240.0	207	413
Frame#	Time	r.ASIS_study			L.ASIS_study			r.PSIS_study			L.PSIS_study			r_knee_study			r_mknee_study			r_ankle_study			r_mankle_study			r_toe_study			r_5meta_study			r_calc_study			L_knee_study			L_mknee_study			r_shoulder_study			L_shoulder_study			C7_study			r_thigh1_study			r_thigh2_study			r_thigh3_study			L_thigh1_study			L_thigh2_study			L_thigh3_study			r_sh1_study			r_sh2_study			r_sh3_study			RHJC_study			LHJC_study			r_lelbow_study			r_melbow_study			r_lwrist_study			r_mwrist_study			L_lelbow_study			L_melbow_study			L_lwrist_study			L_mwrist_study			blade_keel			
		X1	Y1	Z1	X2	Y2	Z2	X3	Y3	Z3	X4	Y4	Z4	X5	Y5	Z5	X6	Y6	Z6	X7	Y7	Z7	X8	Y8	Z8	X9	Y9	Z9	X10	Y10	Z10	X11	Y11	Z11	X12	Y12	Z12	X13	Y13	Z13	X14	Y14	Z14	X15	Y15	Z15	X16	Y16	Z16	X17	Y17	Z17	X18	Y18	Z18	X19	Y19	Z19	X20	Y20	Z20	X21	Y21	Z21	X22	Y22	Z22	X23	Y23	Z23	X24	Y24	Z24	X25	Y25	Z25	X26	Y26	Z26	X27	Y27	Z27	X28	Y28	Z28	X29	Y29	Z29	X30	Y30	Z30	X31	Y31	Z31	X32	Y32	Z32	X33	Y33	Z33	X34	Y34	Z34	X35	Y35	Z35	X36	Y36	Z36	

207	0.8583333	-1.5725306	0.9475674	-0.4349249	-1.5761674	0.9126984	-0.7270367	-1.7407428	1.0110601	-0.5221413	-1.7424063	0.9975677	-0.6364405	-1.4429329	0.5629932	-0.3963319	-1.4237210	0.5571773	-0.5164340	-1.7597017	0.3302355	-0.4448179	-1.7342150	0.3212377	-0.5370296	-1.7489481	0.1929576	-0.5154988	-1.7720037	0.2193672	-0.4496703	-1.7969772	0.3747842	-0.4967162	-1.6461146	0.4878486	-0.7401560	-1.6217005	0.4785913	-0.6486930	-1.3663149	1.3389672	-0.4657313	-1.3370051	1.2942187	-0.7708996	-1.4117618	1.3785050	-0.6293900	-1.5315490	0.8172474	-0.3922477	-1.5027151	0.7174977	-0.3705917	-1.6291036	0.7690648	-0.3667517	-1.6114669	0.7450079	-0.7444011	-1.6313356	0.6461331	-0.7596195	-1.7037204	0.7397048	-0.7528871	-1.5295439	0.4709737	-0.3995273	-1.6093887	0.3843315	-0.4023323	-1.6443344	0.4464879	-0.3994530	-1.6791687	0.8852763	-0.4853650	-1.6814259	0.8645266	-0.6616603	-1.6745029	1.2924992	-0.2993192	-1.6798184	1.2669629	-0.3375775	-1.8181836	1.1456433	-0.2421635	-1.8612420	1.1840955	-0.2219192	-1.2919505	0.9850272	-0.8112977	-1.3444429	0.9597033	-0.7282657	-1.1156406	0.9891475	-0.6371127	-1.1018578	0.9242381	-0.6526968	-1.9327380	-0.0154725	-0.7770191	
208	0.8625000	-1.5577650	0.9474922	-0.4323975	-1.5590264	0.9108400	-0.7256883	-1.7249289	1.0129234	-0.5227628	-1.7257499	0.9988192	-0.6374150	-1.4154330	0.5733040	-0.3967285	-1.3967292	0.5680379	-0.5168284	-1.7237195	0.3265730	-0.4407918	-1.6984581	0.3184131	-0.5332588	-1.7065803	0.1899718	-0.5089771	-1.7314822	0.2166901	-0.4436188	-1.7632300	0.3691143	-0.4936567	-1.6372958	0.4876606	-0.7444677	-1.6148835	0.4776855	-0.6492456	-1.3502890	1.3417464	-0.4633172	-1.3150204	1.2965781	-0.7670822	-1.3919345	1.3814478	-0.6280190	-1.5136524	0.8247965	-0.3915758	-1.4808319	0.7259173	-0.3702902	-1.6095262	0.7711978	-0.3659924	-1.5944357	0.7429386	-0.7459662	-1.6171875	0.6449454	-0.7630467	-1.6896305	0.7398631	-0.7570947	-1.4981738	0.4771944	-0.3986466	-1.5746161	0.3869025	-0.3998900	-1.6124246	0.4480057	-0.3973960	-1.6650308	0.8852205	-0.4840071	-1.6658417	0.8634133	-0.6609923	-1.6596880	1.3082805	-0.2987873	-1.6642865	1.2813909	-0.3334410	-1.8074963	1.1658211	-0.2385652	-1.8490708	1.2049961	-0.2204123	-1.2590368	0.9911096	-0.8046967	-1.3104229	0.9643467	-0.7228972	-1.0828210	1.0073759	-0.6306600	-1.0650921	0.9439208	-0.6449451	-1.9284613	-0.0169084	-0.7781233	
209	0.8666667	-1.5429800	0.9450832	-0.4302747	-1.5416728	0.9078120	-0.7238968	-1.7084796	1.0129617	-0.5231296	-1.7083424	0.9987275	-0.6378333	-1.3884251	0.5815470	-0.3973035	-1.3702512	0.5768147	-0.5173685	-1.6872258	0.3215318	-0.4372063	-1.6622862	0.3143861	-0.5298031	-1.6629145	0.1877666	-0.5026034	-1.6897660	0.2139867	-0.4376978	-1.7291325	0.3613092	-0.4910472	-1.6270936	0.4870245	-0.7484565	-1.6073005	0.4762322	-0.6500429	-1.3346740	1.3429906	-0.4603991	-1.2933729	1.2975463	-0.7625686	-1.3720642	1.3823924	-0.6258319	-1.4956817	0.8298809	-0.3910482	-1.4591177	0.7320717	-0.3701825	-1.5899532	0.7713796	-0.3656890	-1.5766936	0.7399930	-0.7462442	-1.6019283	0.6430726	-0.7654630	-1.6743031	0.7390351	-0.7608744	-1.4670738	0.4816283	-0.3980855	-1.5397634	0.3880575	-0.3978356	-1.5803085	0.4477085	-0.3957073	-1.6506336	0.8830893	-0.4831157	-1.6498753	0.8609324	-0.6602902	-1.6441242	1.3214398	-0.2981969	-1.6481779	1.2937066	-0.3296564	-1.7967745	1.1830399	-0.2357609	-1.8368712	1.2230815	-0.2197450	-1.2277871	0.9959556	-0.7989629	-1.2780795	0.9679457	-0.7182881	-1.0525999	1.0247345	-0.6248529	-1.0311890	0.9629271	-0.6376991	-1.9230128	-0.0184285	-0.7795008	
210	0.8708333	-1.5271166	0.9463755	-0.4271633	-1.5235001	0.9058068	-0.7225501	-1.6919909	1.0163941	-0.5245279	-1.6910065	1.0007950	-0.6398459	-1.3623690	0.5930770	-0.3963851	-1.3447866	0.5887420	-0.5166988	-1.6507573	0.3170655	-0.4340888	-1.6258523	0.3105689	-0.5266944	-1.6197845	0.1851818	-0.4967266	-1.6486971	0.2113588	-0.4331029	-1.6950212	0.3542573	-0.4886376	-1.6222719	0.4841519	-0.7517206	-1.6059281	0.4736187	-0.6497479	-1.3167183	1.3462525	-0.4588382	-1.2704950	1.2999459	-0.7594037	-1.3514921	1.3874706	-0.6247522	-1.4787486	0.8391050	-0.3905147	-1.4383510	0.7419786	-0.3694477	-1.5702105	0.7749008	-0.3642039	-1.5605244	0.7348667	-0.7475183	-1.5895787	0.6388466	-0.7683105	-1.6601041	0.7382999	-0.7650045	-1.4366456	0.4887993	-0.3965321	-1.5055532	0.3910389	-0.3957432	-1.5489972	0.4492362	-0.3935826	-1.6358624	0.8845156	-0.4817799	-1.6337580	0.8603350	-0.6599849	-1.6274772	1.3343290	-0.2975911	-1.6307369	1.3062284	-0.3257207	-1.7858262	1.2012252	-0.2331633	-1.8242412	1.2419161	-0.2194263	-1.1979104	1.0025015	-0.7937944	-1.2471689	0.9734292	-0.7139441	-1.0245294	1.0430777	-0.6193795	-0.9999785	0.9830471	-0.6308214	-1.9162682	-0.0200192	-0.7811601	
211	0.8750000	-1.5115747	0.9461559	-0.4251044	-1.5054147	0.9027383	-0.7204299	-1.6748218	1.0176648	-0.5256529	-1.6728946	1.0010521	-0.6409006	-1.3374678	0.6019411	-0.3942651	-1.3201446	0.5985995	-0.5148429	-1.6133095	0.3106721	-0.4297970	-1.5883096	0.3054875	-0.5224049	-1.5743537	0.1822104	-0.4899438	-1.6053853	0.2075132	-0.4267371	-1.6600825	0.3449409	-0.4853090	-1.6151332	0.4815272	-0.7538732	-1.6008568	0.4703557	-0.6492690	-1.3020739	1.3490593	-0.4558845	-1.2491884	1.3010478	-0.7535898	-1.3322814	1.3892929	-0.6221674	-1.4613188	0.8442892	-0.3888746	-1.4178730	0.7483897	-0.3675608	-1.5510716	0.7763645	-0.3628531	-1.5445469	0.7304869	-0.7473884	-1.5767642	0.6353170	-0.7696551	-1.6454460	0.7371071	-0.7675700	-1.4069966	0.4934816	-0.3939129	-1.4711930	0.3916561	-0.3922932	-1.5176667	0.4485267	-0.3902926	-1.6206262	0.8841685	-0.4810601	-1.6169528	0.8582625	-0.6592223	-1.6110526	1.3384977	-0.2970024	-1.6127885	1.3105789	-0.3219580	-1.7749331	1.2107409	-0.2314388	-1.8119057	1.2516889	-0.2202452	-1.1697969	1.0067953	-0.7897506	-1.2180825	0.9769574	-0.7101802	-0.9991915	1.0591600	-0.6148593	-0.9718427	1.0010463	-0.6243907	-1.9081338	-0.0216662	-0.7831017	
212	0.8791667	-1.4951951	0.9480620	-0.4227099	-1.4868888	0.9035021	-0.7177137	-1.6565102	1.0220650	-0.5254622	-1.6537245	1.0049787	-0.6405082	-1.3142344	0.6120422	-0.3936380	-1.2965900	0.6096084	-0.5144977	-1.5762227	0.3069918	-0.4268392	-1.5508259	0.3031297	-0.5194317	-1.5289599	0.1828929	-0.4828745	-1.5623754	0.2073638	-0.4207774	-1.6249863	0.3381715	-0.4837391	-1.6075886	0.4832330	-0.7555780	-1.5953076	0.4716745	-0.6495082	-1.2868354	1.3538563	-0.4530186	-1.2287091	1.3055409	-0.7480988	-1.3133826	1.3934743	-0.6190098	-1.4443666	0.8515899	-0.3873599	-1.3984238	0.7565715	-0.3663564	-1.5323528	0.7801448	-0.3620616	-1.5284400	0.7300394	-0.7465116	-1.5636156	0.6358294	-0.7701337	-1.6303706	0.7397876	-0.7690471	-1.3786392	0.4999255	-0.3927471	-1.4378139	0.3947523	-0.3901236	-1.4872192	0.4496905	-0.3886248	-1.6046557	0.8866134	-0.4803083	-1.5996902	0.8600176	-0.6582460	-1.5916124	1.3484243	-0.2958391	-1.5921579	1.3213152	-0.3166850	-1.7635526	1.2297967	-0.2290331	-1.7979945	1.2707617	-0.2202496	-1.1419335	1.0147316	-0.7854808	-1.1888877	0.9837935	-0.7064047	-0.9742367	1.0783960	-0.6098487	-0.9445249	1.0222229	-0.6180429	-1.8985533	-0.0233561	-0.7853171	
213	0.8833333	-1.4787702	0.9458631	-0.4202171	-1.4678442	0.8998424	-0.7154884	-1.6381779	1.0223034	-0.5257946	-1.6343311	1.0046137	-0.6409045	-1.2909186	0.6191639	-0.3917763	-1.2729578	0.6171475	-0.5130434	-1.5388602	0.3017065	-0.4239608	-1.5130154	0.2988278	-0.5164107	-1.4842435	0.1824725	-0.4767012	-1.5197119	0.2056382	-0.4156878	-1.5892179	0.3295491	-0.4819335	-1.5991840	0.4815367	-0.7570794	-1.5891256	0.4700175	-0.6501135	-1.2716428	1.3550895	-0.4491618	-1.2071169	1.3064103	-0.7421131	-1.2943180	1.3943509	-0.6151918	-1.4275636	0.8551338	-0.3858293	-1.3790445	0.7613953	-0.3646518	-1.5135543	0.7806370	-0.3608734	-1.5125406	0.7253954	-0.7456043	-1.5502051	0.6323858	-0.7704066	-1.6144629	0.7381346	-0.7704182	-1.3502950	0.5039601	-0.3906828	-1.4045165	0.3959531	-0.3875241	-1.4565512	0.4487135	-0.3865148	-1.5886351	0.8849608	-0.4798020	-1.5821038	0.8574724	-0.6578838	-1.5715379	1.3532904	-0.2947877	-1.5703010	1.3276335	-0.3113645	-1.7518830	1.2467810	-0.2273697	-1.7833788	1.2875579	-0.2207807	-1.1152613	1.0196859	-0.7820069	-1.1606364	0.9877955	-0.7033262	-0.9516845	1.0954145	-0.6057899	-0.9197319	1.0415906	-0.6125236	-1.8875138	-0.0250766	-0.7877882	
214	0.8875000	-1.4612605	0.9472062	-0.4178404	-1.4489386	0.8989851	-0.7133599	-1.6188026	1.0252065	-0.5256947	-1.6143595	1.0066030	-0.6408505	-1.2697633	0.6274654	-0.3899160	-1.2514420	0.6259937	-0.5114463	-1.5013503	0.2980305	-0.4206498	-1.4749430	0.2961301	-0.5130014	-1.4391587	0.1838215	-0.4697530	-1.4766486	0.2058096	-0.4098111	-1.5528862	0.3222978	-0.4799823	-1.5903442	0.4835460	-0.7572787	-1.5815082	0.4721890	-0.6499772	-1.2564711	1.3594178	-0.4456665	-1.1863126	1.3101868	-0.7362261	-1.2755540	1.3979512	-0.6117573	-1.4107867	0.8603502	-0.3840407	-1.3605225	0.7676660	-0.3628031	-1.4948334	0.7837063	-0.3596135	-1.4971551	0.7241230	-0.7445452	-1.5370823	0.6324211	-0.7699541	-1.5987917	0.7393726	-0.7705738	-1.3236273	0.5095112	-0.3883089	-1.3721830	0.3988440	-0.3843664	-1.4268586	0.4491319	-0.3841961	-1.5715399	0.8864797	-0.4790002	-1.5641762	0.8576569	-0.6572179	-1.5510557	1.3568191	-0.2937411	-1.5473709	1.3330076	-0.3063077	-1.7399448	1.2622434	-0.2262741	-1.7686778	1.3026348	-0.2220159	-1.0890575	1.0280949	-0.7787370	-1.1327954	0.9955256	-0.7003547	-0.9302455	1.1138589	-0.6020066	-0.8965031	1.0627337	-0.6073648	-1.8750491	-0.0268182	-0.7904872	
215	0.8916667	-1.4438086	0.9471508	-0.4156348	-1.4292469	0.8970044	-0.7112060	-1.5993571	1.0272879	-0.5262298	-1.5940032	1.0078370	-0.6413848	-1.2492119	0.6343219	-0.3876776	-1.2303042	0.6332350	-0.5097944	-1.4644746	0.2930863	-0.4188340	-1.4372052	0.2920352	-0.5109411	-1.3952317	0.1834274	-0.4645950	-1.4347408	0.2039132	-0.4058358	-1.5171140	0.3143638	-0.4792524	-1.5843939	0.4828825	-0.7578477	-1.5769437	0.4720773	-0.6506434	-1.2417539	1.3634048	-0.4428169	-1.1655973	1.3141956	-0.7302599	-1.2574667	1.4017407	-0.6083546	-1.3939660	0.8642564	-0.3822524	-1.3422656	0.7726177	-0.3607795	-1.4765190	0.7855778	-0.3581867	-1.4829110	0.7201683	-0.7436158	-1.5257660	0.6297470	-0.7696418	-1.5834967	0.7389028	-0.7706606	-1.2977237	0.5136378	-0.3862275	-1.3407006	0.4003118	-0.3821830	-1.3980407	0.4482408	-0.3826654	-1.5543177	0.8867834	-0.4784814	-1.5456428	0.8567655	-0.6567076	-1.5299437	1.3582828	-0.2926287	-1.5239281	1.3366788	-0.3012490	-1.7274898	1.2762573	-0.2256294	-1.7533205	1.3159950	-0.2233669	-1.0635572	1.0354170	-0.7758971	-1.1056520	1.0020576	-0.6980749	-0.9102837	1.1307353	-0.5983164	-0.8748756	1.0822818	-0.6024193	-1.8612404	-0.0285733	-0.7933766	
216	0.8958333	-1.4254373	0.9478654	-0.4137206	-1.4097725	0.8945644	-0.7096548	-1.5793556	1.0286609	-0.5265541	-1.5735636	1.0079157	-0.6418074	-1.2299430	0.6394889	-0.3846152	-1.2103961	0.6390403	-0.5071744	-1.4272614	0.2873485	-0.4152893	-1.3990297	0.2871920	-0.5073232	-1.3509172	0.1816460	-0.4579139	-1.3923474	0.2010217	-0.4000464	-1.4806116	0.3056961	-0.4770650	-1.5775518	0.4825574	-0.7573838	-1.5702482	0.4721249	-0.6503106	-1.2275073	1.3666867	-0.4395235	-1.1458887	1.3171668	-0.7239994	-1.2400105	1.4044168	-0.6047221	-1.3770274	0.8670177	-0.3802355	-1.3244227	0.7761545	-0.3583050	-1.4581736	0.7870438	-0.3564575	-1.4691669	0.7166113	-0.7432735	-1.5146177	0.6274615	-0.7692608	-1.5686075	0.7382349	-0.7701699	-1.2727694	0.5165203	-0.3828473	-1.3096979	0.4007991	-0.3782713	-1.3696205	0.4461153	-0.3797734	-1.5362926	0.8873538	-0.4777907	-1.5269692	0.8554177	-0.6562154	-1.5088458	1.3585108	-0.2915401	-1.5004905	1.3393842	-0.2966752	-1.7145274	1.2887991	-0.2255862	-1.7374670	1.3277595	-0.2249204	-1.0386129	1.0424284	-0.7733510	-1.0791281	1.0082525	-0.6962055	-0.8918631	1.1471445	-0.5949675	-0.8548567	1.1014057	-0.5977060	-1.8462154	-0.0303369	-0.7964099	
